<svg xmlns="http://www.w3.org/2000/svg" xmlns:xlink="http://www.w3.org/1999/xlink" xmlns:s="https://github.com/nturley/netlistsvg" width="381" height="237">
  <style>svg {
    stroke:#000;
    fill:none;
  }
  text {
    fill:#000;
    stroke:none;
    font-size:10px;
    font-weight: bold;
    font-family: "Courier New", monospace;
  }
  .nodelabel {
    text-anchor: middle;
  }
  .inputPortLabel {
    text-anchor: end;
  }
  .splitjoinBody {
    fill:#000;
  }</style>
  <g s:type="not" transform="translate(79,34.5)" s:width="30" s:height="20" id="cell_$not$johnson.v:7$2">
    <s:alias val="$_NOT_"/>
    <s:alias val="$not"/>
    <s:alias val="$logic_not"/>
    <path d="M0,0 L0,20 L20,10 Z" class="cell_$not$johnson.v:7$2"/>
    <circle cx="23" cy="10" r="3" class="cell_$not$johnson.v:7$2"/>
    <g s:x="0" s:y="10" s:pid="A"/>
    <g s:x="25" s:y="10" s:pid="Y"/>
  </g>
  <g s:type="dff" transform="translate(274,174)" s:width="30" s:height="40" id="cell_$procdff$6">
    <s:alias val="$dff"/>
    <s:alias val="$_DFF_"/>
    <s:alias val="$_DFF_P_"/>
    <rect width="30" height="40" x="0" y="0" class="cell_$procdff$6"/>
    <path d="M0,35 L5,30 L0,25" class="cell_$procdff$6"/>
    <g s:x="30" s:y="10" s:pid="Q"/>
    <g s:x="0" s:y="30" s:pid="CLK"/>
    <g s:x="0" s:y="30" s:pid="C"/>
    <g s:x="0" s:y="10" s:pid="D"/>
  </g>
  <g s:type="mux" transform="translate(212.33333333333334,79)" s:width="20" s:height="40" id="cell_$procmux$4">
    <s:alias val="$pmux"/>
    <s:alias val="$mux"/>
    <s:alias val="$_MUX_"/>
    <path d="M0,0 L20,10 L20,30 L0,40 Z" class="cell_$procmux$4"/>
    <g s:x="0" s:y="10" s:pid="A"/>
    <g s:x="0" s:y="30" s:pid="B"/>
    <g s:x="10" s:y="35" s:pid="S"/>
    <g s:x="20" s:y="20" s:pid="Y"/>
  </g>
  <g s:type="inputExt" transform="translate(209,194)" s:width="30" s:height="20" id="cell_clk">
    <text x="15" y="-4" class="nodelabel cell_clk" s:attribute="ref">clk</text>
    <s:alias val="$_inputExt_"/>
    <path d="M0,0 L0,20 L15,20 L30,10 L15,0 Z" class="cell_clk"/>
    <g s:x="28" s:y="10" s:pid="Y"/>
  </g>
  <g s:type="inputExt" transform="translate(144,164)" s:width="30" s:height="20" id="cell_reset">
    <text x="15" y="-4" class="nodelabel cell_reset" s:attribute="ref">reset</text>
    <s:alias val="$_inputExt_"/>
    <path d="M0,0 L0,20 L15,20 L30,10 L15,0 Z" class="cell_reset"/>
    <g s:x="28" s:y="10" s:pid="Y"/>
  </g>
  <g s:type="inputExt" transform="translate(144,99)" s:width="30" s:height="20" id="cell_load">
    <text x="15" y="-4" class="nodelabel cell_load" s:attribute="ref">load</text>
    <s:alias val="$_inputExt_"/>
    <path d="M0,0 L0,20 L15,20 L30,10 L15,0 Z" class="cell_load"/>
    <g s:x="28" s:y="10" s:pid="Y"/>
  </g>
  <g s:type="outputExt" transform="translate(339,174)" s:width="30" s:height="20" id="cell_q">
    <text x="15" y="-4" class="nodelabel cell_q" s:attribute="ref">q</text>
    <s:alias val="$_outputExt_"/>
    <path d="M30,0 L30,20 L15,20 L0,10 L15,0 Z" class="cell_q"/>
    <g s:x="0" s:y="10" s:pid="A"/>
  </g>
  <g s:type="join" transform="translate(163,14)" s:width="4" s:height="40" id="cell_$join$,9,10,11,12,">
    <rect width="5" height="40" class="splitjoinBody" s:generic="body"/>
    <s:alias val="$_join_"/>
    <g s:x="5" s:y="20" s:pid="out"/>
    <g transform="translate(0,10)" s:x="0" s:y="10" s:pid="in0">
      <text x="-3" y="-4" class="inputPortLabel">0:2</text>
    </g>
    <g transform="translate(0,30)" s:x="0" s:y="10" s:pid="in0">
      <text x="-3" y="-4" class="inputPortLabel">3</text>
    </g>
  </g>
  <g s:type="split" transform="translate(32,34)" s:width="5" s:height="40" id="cell_$split$,8,9,10,11,">
    <rect width="5" height="40" class="splitjoinBody" s:generic="body"/>
    <s:alias val="$_split_"/>
    <g s:x="0" s:y="20" s:pid="in"/>
    <g transform="translate(4,10)" s:x="4" s:y="10" s:pid="out0">
      <text x="5" y="-4">0</text>
    </g>
    <g transform="translate(4,30)" s:x="4" s:y="10" s:pid="out0">
      <text x="5" y="-4">1:3</text>
    </g>
  </g>
  <line x1="37" x2="79" y1="44.5" y2="44.5" class="net_8"/>
  <line x1="237" x2="274" y1="204" y2="204" class="net_2"/>
  <line x1="232.33333333333334" x2="249" y1="99" y2="99" class="net_13,14,15,16"/>
  <line x1="249" x2="249" y1="99" y2="184" class="net_13,14,15,16"/>
  <line x1="249" x2="274" y1="184" y2="184" class="net_13,14,15,16"/>
  <line x1="169" x2="184" y1="34.5" y2="34.5" class="net_9,10,11,12"/>
  <line x1="184" x2="184" y1="34.5" y2="89" class="net_9,10,11,12"/>
  <line x1="184" x2="212.33333333333334" y1="89" y2="89" class="net_9,10,11,12"/>
  <line x1="172" x2="212.33333333333334" y1="109" y2="109" class="net_4,5,6,7"/>
  <line x1="172" x2="222.33333333333334" y1="174" y2="174" class="net_3"/>
  <line x1="222.33333333333334" x2="222.33333333333334" y1="174" y2="114" class="net_3"/>
  <line x1="304" x2="339" y1="184" y2="184" class="net_8,9,10,11"/>
  <line x1="304" x2="314" y1="184" y2="184" class="net_8,9,10,11"/>
  <line x1="314" x2="314" y1="184" y2="224" class="net_8,9,10,11"/>
  <line x1="314" x2="12" y1="224" y2="224" class="net_8,9,10,11"/>
  <line x1="12" x2="12" y1="224" y2="54.5" class="net_8,9,10,11"/>
  <circle cx="314" cy="184" r="2" style="fill:#000" class="net_8,9,10,11"/>
  <line x1="12" x2="32" y1="54.5" y2="54.5" class="net_8,9,10,11"/>
  <line x1="37" x2="54" y1="64.5" y2="64.5" class="net_9,10,11"/>
  <line x1="54" x2="54" y1="64.5" y2="23.5" class="net_9,10,11"/>
  <line x1="54" x2="119" y1="23.5" y2="23.5" class="net_9,10,11"/>
  <line x1="119" x2="119" y1="23.5" y2="24.5" class="net_9,10,11"/>
  <line x1="119" x2="163" y1="24.5" y2="24.5" class="net_9,10,11"/>
  <line x1="104" x2="163" y1="44.5" y2="44.5" class="net_12"/>
</svg>
